<?xml version="1.0" encoding="UTF-8" standalone="no"?>
<svg
   xmlns:dc="http://purl.org/dc/elements/1.1/"
   xmlns:cc="http://creativecommons.org/ns#"
   xmlns:rdf="http://www.w3.org/1999/02/22-rdf-syntax-ns#"
   xmlns:svg="http://www.w3.org/2000/svg"
   xmlns="http://www.w3.org/2000/svg"
   xmlns:sodipodi="http://sodipodi.sourceforge.net/DTD/sodipodi-0.dtd"
   xmlns:inkscape="http://www.inkscape.org/namespaces/inkscape"
   version="1.0"
   width="94pt"
   height="95.074997pt"
   viewBox="0 0 94 95.074997"
   preserveAspectRatio="xMidYMid meet"
   id="svg10"
   sodipodi:docname="save.svg"
   inkscape:version="1.0.2-2 (e86c870879, 2021-01-15)">
  <defs
     id="defs14" />
  <sodipodi:namedview
     pagecolor="#ffffff"
     bordercolor="#666666"
     borderopacity="1"
     objecttolerance="10"
     gridtolerance="10"
     guidetolerance="10"
     inkscape:pageopacity="0"
     inkscape:pageshadow="2"
     inkscape:window-width="1460"
     inkscape:window-height="926"
     id="namedview12"
     showgrid="false"
     inkscape:zoom="4.98"
     inkscape:cx="62.666667"
     inkscape:cy="63.333333"
     inkscape:window-x="0"
     inkscape:window-y="0"
     inkscape:window-maximized="0"
     inkscape:current-layer="svg10" />
  <metadata
     id="metadata2">
Created by potrace 1.16, written by Peter Selinger 2001-2019
<rdf:RDF>
  <cc:Work
     rdf:about="">
    <dc:format>image/svg+xml</dc:format>
    <dc:type
       rdf:resource="http://purl.org/dc/dcmitype/StillImage" />
  </cc:Work>
</rdf:RDF>
</metadata>
  <g
     transform="matrix(0.1,0,0,-0.1,-15,110)"
     fill="#000000"
     stroke="none"
     id="g8">
    <path
       id="path6"
       d="m 168,619 c -16,-9 -18,-30 -18,-200 0,-207 6,-235 55,-257 37,-17 793,-17 830,0 49,22 55,50 55,257 0,178 -1,191 -19,201 -30,15 -66,12 -84,-8 -14,-16 -17,-43 -17,-168 0,-103 -4,-154 -12,-162 -17,-17 -659,-17 -676,0 -8,8 -12,59 -12,163 0,134 -2,154 -18,168 -21,19 -58,22 -84,6 z m 408,459 c -13,-19 -16,-60 -16,-245 V 611 l -46,49 c -37,40 -53,50 -79,50 -37,0 -65,-26 -65,-60 0,-35 215,-250 250,-250 20,0 52,26 138,113 65,66 112,122 112,133 0,36 -29,64 -64,64 -27,0 -42,-9 -80,-50 l -46,-49 v 222 c 0,247 -4,267 -60,267 -18,0 -34,-8 -44,-22 z" />
  </g>
</svg>
