<?xml version="1.0" standalone="no"?>
<!DOCTYPE svg PUBLIC "-//W3C//DTD SVG 20010904//EN"
 "http://www.w3.org/TR/2001/REC-SVG-20010904/DTD/svg10.dtd">
<svg version="1.0" xmlns="http://www.w3.org/2000/svg"
 width="80.000000pt" height="81.000000pt" viewBox="0 0 80.000000 81.000000"
 preserveAspectRatio="xMidYMid meet">
<metadata>
Created by potrace 1.16, written by Peter Selinger 2001-2019
</metadata>
<g transform="translate(0.000000,81.000000) scale(0.100000,-0.100000)"
fill="#000000" stroke="none">
<path d="M306 697 c-6 -43 -12 -55 -34 -68 -26 -14 -31 -14 -72 3 l-45 19 -21
-27 c-12 -14 -32 -49 -45 -76 l-23 -50 37 -30 c29 -24 37 -37 37 -63 0 -26 -8
-39 -37 -63 l-37 -30 23 -50 c13 -27 33 -62 45 -76 l21 -27 45 19 c41 17 46
17 72 3 22 -13 28 -25 34 -68 l6 -53 88 0 88 0 6 53 c6 43 12 55 34 68 26 14
31 14 72 -3 l45 -19 21 27 c12 14 32 49 45 76 l23 50 -37 30 c-29 24 -37 37
-37 63 0 26 8 39 37 63 l37 30 -23 50 c-13 27 -33 62 -45 76 l-21 27 -45 -19
c-41 -17 -46 -17 -72 -3 -22 13 -28 25 -34 68 l-6 53 -88 0 -88 0 -6 -53z
m152 -200 c47 -23 65 -93 38 -145 -38 -73 -154 -73 -192 0 -35 68 -4 136 76
161 18 6 46 0 78 -16z"/>
</g>
</svg>
