<?xml version="1.0" standalone="no"?>
<!DOCTYPE svg PUBLIC "-//W3C//DTD SVG 20010904//EN"
 "http://www.w3.org/TR/2001/REC-SVG-20010904/DTD/svg10.dtd">
<svg version="1.0" xmlns="http://www.w3.org/2000/svg"
 width="20.000000pt" height="29.000000pt" viewBox="0 0 20.000000 29.000000"
 preserveAspectRatio="xMidYMid meet">
<metadata>
Created by potrace 1.16, written by Peter Selinger 2001-2019
</metadata>
<g transform="translate(0.000000,29.000000) scale(0.100000,-0.100000)"
fill="#000000" stroke="none">
<path d="M130 272 c0 -20 -5 -22 -65 -22 l-65 0 0 -40 0 -40 65 0 65 0 0 -30
0 -30 -65 0 -65 0 0 -40 0 -40 65 0 c54 0 65 -3 65 -17 0 -13 9 -8 35 17 19
19 35 38 35 44 0 6 -14 24 -30 41 l-30 31 30 29 c16 16 30 34 30 40 0 6 -16
26 -35 45 -32 31 -35 32 -35 12z"/>
</g>
</svg>
